<svg xmlns="http://www.w3.org/2000/svg" width="1200" height="360" viewBox="0 0 1200 360" role="img" aria-label="Salsa as a Service v2 hero illustration">
  <defs>
    <linearGradient id="g1" x1="0" y1="0" x2="1" y2="1">
      <stop offset="0" stop-color="#16A34A" stop-opacity="0.18"/>
      <stop offset="1" stop-color="#07C983" stop-opacity="0.10"/>
    </linearGradient>

    <linearGradient id="g2" x1="1" y1="0" x2="0" y2="1">
      <stop offset="0" stop-color="#16A34A" stop-opacity="0.30"/>
      <stop offset="1" stop-color="#15803D" stop-opacity="0.10"/>
    </linearGradient>

    <filter id="blur" x="-10%" y="-30%" width="120%" height="160%">
      <feGaussianBlur stdDeviation="16"/>
    </filter>

    <filter id="shadow" x="-20%" y="-20%" width="140%" height="140%">
      <feDropShadow dx="0" dy="10" stdDeviation="14" flood-color="#0b3d1b" flood-opacity="0.18"/>
    </filter>

    <style>
      .line { fill: none; stroke: #16A34A; stroke-opacity: .30; stroke-width: 3; }
      .line2 { fill: none; stroke: #07C983; stroke-opacity: .18; stroke-width: 2; }
      .node { fill: #16A34A; fill-opacity: .20; stroke: #16A34A; stroke-opacity: .40; }
      .chip { fill: #16A34A; fill-opacity: .10; stroke: #16A34A; stroke-opacity: .35; }
      .text { font-family: ui-sans-serif, system-ui, -apple-system, Segoe UI, Roboto, Helvetica, Arial; fill: #0f2a17; fill-opacity: .70; font-weight: 600; letter-spacing: .3px; }
      .tiny { font-size: 12px; font-weight: 600; fill-opacity: .55; }
      .small { font-size: 14px; }
    </style>
  </defs>

  <!-- Soft background glow -->
  <rect x="0" y="0" width="1200" height="360" fill="url(#g1)"/>
  <circle cx="220" cy="110" r="120" fill="#07C983" fill-opacity="0.14" filter="url(#blur)"/>
  <circle cx="1030" cy="260" r="140" fill="#16A34A" fill-opacity="0.14" filter="url(#blur)"/>

  <!-- Data flow curves -->
  <path class="line" d="M 70 250 C 220 130, 360 120, 510 180 S 820 290, 1120 140" />
  <path class="line2" d="M 90 260 C 240 150, 380 145, 520 200 S 840 300, 1140 160" />
  <path class="line2" d="M 80 210 C 230 90, 420 70, 560 140 S 840 260, 1120 105" />

  <!-- Nodes on flows -->
  <circle class="node" cx="260" cy="145" r="10"/>
  <circle class="node" cx="510" cy="182" r="12"/>
  <circle class="node" cx="770" cy="248" r="10"/>
  <circle class="node" cx="970" cy="210" r="12"/>

  <!-- Small “API chips” -->
  <g transform="translate(120,80)">
    <rect class="chip" x="0" y="0" rx="14" ry="14" width="150" height="54"/>
    <text class="text small" x="16" y="24">REST</text>
    <text class="text tiny" x="16" y="42">/v2/*</text>
    <circle class="node" cx="124" cy="27" r="7"/>
  </g>

  <g transform="translate(930,70)">
    <rect class="chip" x="0" y="0" rx="14" ry="14" width="190" height="54"/>
    <text class="text small" x="16" y="24">GraphQL</text>
    <text class="text tiny" x="16" y="42">schema + subs</text>
    <circle class="node" cx="162" cy="27" r="7"/>
  </g>

  <g transform="translate(890,270)">
    <rect class="chip" x="0" y="0" rx="14" ry="14" width="230" height="54"/>
    <text class="text small" x="16" y="24">AI Forecasting</text>
    <text class="text tiny" x="16" y="42">demand + quality</text>
    <circle class="node" cx="202" cy="27" r="7"/>
  </g>

  <!-- Center “Salsa Jar” -->
  <g transform="translate(520,64)" filter="url(#shadow)">
    <!-- Lid -->
    <rect x="70" y="0" width="120" height="34" rx="12" fill="url(#g2)"/>
    <rect x="84" y="10" width="92" height="10" rx="6" fill="#16A34A" fill-opacity="0.22"/>

    <!-- Jar body -->
    <rect x="40" y="30" width="180" height="230" rx="36" fill="#ffffff" fill-opacity="0.55" stroke="#16A34A" stroke-opacity="0.22" stroke-width="2"/>
    <rect x="56" y="56" width="148" height="178" rx="28" fill="url(#g1)" stroke="#16A34A" stroke-opacity="0.12"/>

    <!-- Label -->
    <rect x="64" y="128" width="132" height="62" rx="18" fill="#ffffff" fill-opacity="0.70" stroke="#16A34A" stroke-opacity="0.20"/>
    <text class="text" x="80" y="154" font-size="16">Salsa</text>
    <text class="text tiny" x="80" y="174">as a Service</text>
    <text class="text tiny" x="80" y="192">v2 • current</text>

    <!-- Decorative bubbles -->
    <circle cx="96" cy="96" r="7" fill="#16A34A" fill-opacity="0.18"/>
    <circle cx="150" cy="86" r="5" fill="#07C983" fill-opacity="0.20"/>
    <circle cx="176" cy="110" r="8" fill="#16A34A" fill-opacity="0.14"/>
  </g>

  <!-- Tiny “IoT” icon cluster -->
  <g transform="translate(170,270)">
    <circle class="node" cx="0" cy="0" r="12"/>
    <circle class="node" cx="42" cy="-18" r="8"/>
    <circle class="node" cx="64" cy="18" r="10"/>
    <path class="line2" d="M 0 0 L 42 -18 L 64 18" />
    <text class="text tiny" x="88" y="6">IoT signals</text>
  </g>
</svg>
